<svg width="50" height="50" viewBox="0 0 50 50" fill="none" xmlns="http://www.w3.org/2000/svg">
<circle cx="25" cy="25" r="24.5" fill="white" stroke="#4B564B"/>
<path d="M38.0348 30.6562C38.0348 35.25 32.1714 39 24.9549 39C17.7384 39 11.875 35.25 11.875 30.6562V28.5H38.125V30.6562H38.0348Z" fill="#FEDC90"/>
<path fill-rule="evenodd" clip-rule="evenodd" d="M16.944 14.915C16.5819 13.3516 17.8491 11.875 19.4784 11.875C20.9267 11.875 22.1034 13.0041 22.1034 14.3938V20.1264C23.0086 20.0395 23.9138 19.9527 24.9095 19.9527C25.8147 19.9527 26.2823 20.0395 27.1875 20.1264L27.1875 14.0625C27.1875 12.6728 28.8017 11.875 30.25 11.875C31.8793 11.875 33.1466 13.3516 32.875 14.915L31.6983 21.1687C35.5 22.5584 38.125 24.9903 38.125 27.7698C38.125 32.0257 32.2414 35.5 25 35.5C17.7586 35.5 11.875 32.0257 11.875 27.7698C11.875 24.9903 14.4095 22.5584 18.2112 21.1687L16.944 14.915Z" fill="#D1884F"/>
<path fill-rule="evenodd" clip-rule="evenodd" d="M15.9875 15.375C15.55 13.1 17.3 11 19.575 11C21.5875 11 23.25 12.6625 23.25 14.675V19.225C23.775 19.225 24.3 19.1375 24.825 19.1375C25.35 19.1375 25.7875 19.1375 26.3125 19.225V14.675C26.3125 12.6625 27.975 11 29.9875 11C32.2625 11 34.0125 13.1 33.6625 15.375L32.7 20.7125C36.1125 22.2 38.7375 24.825 38.7375 28.0625V30.075C38.7375 32.7875 36.9875 35.0625 34.45 36.55C31.9125 38.125 28.5875 39 24.825 39C21.0625 39 17.7375 38.125 15.2 36.55C12.75 35.0625 11 32.7875 11 30.075V28.0625C11 24.825 13.5375 22.2 16.95 20.7125L15.9875 15.375ZM31.3875 21.4125L32.525 15.1125C32.7875 13.5375 31.65 12.05 29.9875 12.05C28.5875 12.05 27.45 13.1875 27.45 14.5875V20.3625C27.1 20.275 26.6625 20.275 26.3125 20.275C25.7875 20.275 25.35 20.1875 24.825 20.1875C24.3 20.1875 23.775 20.1875 23.25 20.275C22.9 20.275 22.4625 20.3625 22.1125 20.3625V14.675C22.1125 13.275 20.975 12.1375 19.575 12.1375C18 12.1375 16.775 13.625 17.125 15.2L18.2625 21.5C14.5875 22.9 12.1375 25.35 12.1375 28.15V30.1625C12.1375 34.45 17.825 37.95 24.825 37.95C31.825 37.95 37.5125 34.45 37.5125 30.1625V28.15C37.6 25.2625 35.15 22.8125 31.3875 21.4125Z" fill="#633001"/>
<path d="M21.3249 27.5375C21.3249 28.675 20.7124 29.6375 19.9249 29.6375C19.1374 29.6375 18.5249 28.675 18.5249 27.5375C18.5249 26.4 19.1374 25.4375 19.9249 25.4375C20.7124 25.4375 21.3249 26.4 21.3249 27.5375Z" fill="#633001"/>
<path d="M31.0375 27.5375C31.0375 28.675 30.425 29.6375 29.6375 29.6375C28.85 29.6375 28.2375 28.675 28.2375 27.5375C28.2375 26.4 28.85 25.4375 29.6375 25.4375C30.425 25.4375 31.0375 26.4 31.0375 27.5375Z" fill="#633001"/>
</svg>
