<svg width="50" height="50" viewBox="0 0 50 50" fill="none" xmlns="http://www.w3.org/2000/svg">
<circle cx="25" cy="25" r="24.5" fill="white" stroke="#4B564B"/>
<path d="M23.3875 38.9622C22.2209 38.0458 21.642 37.0945 21.6449 36.1083C21.6187 35.2039 21.9524 34.3261 22.5729 33.6675L35.7979 20.4426C36.7084 21.2193 37.2466 22.1008 37.4212 23.0957C37.5109 23.5768 37.4809 24.0726 37.3337 24.5393C37.1866 25.0061 36.9269 25.4295 36.5775 25.7721L23.3875 38.9622ZM18.6747 34.2494C17.5052 33.3301 16.9263 32.3788 16.9321 31.3955C16.9059 30.4911 17.2396 29.6132 17.8601 28.9547L31.0851 15.7298C31.9927 16.5036 32.5338 17.388 32.7084 18.3829C32.7972 18.8638 32.7665 19.3592 32.6189 19.8254C32.4712 20.2916 32.2113 20.7143 31.8618 21.0564L18.6747 34.2494ZM13.959 29.5337C12.7895 28.6144 12.2106 27.6631 12.2164 26.6798C12.1901 25.7754 12.5239 24.8975 13.1444 24.239L26.3693 11.0141C27.2799 11.7908 27.8181 12.6723 27.9926 13.6672C28.0824 14.1483 28.0524 14.6441 27.9052 15.1108C27.7581 15.5776 27.4984 16.0009 27.149 16.3436L13.959 29.5337Z" fill="url(#paint0_linear_1054_96567)"/>
<defs>
<linearGradient id="paint0_linear_1054_96567" x1="-294.465" y1="-1830.49" x2="799.189" y2="-736.839" gradientUnits="userSpaceOnUse">
<stop stop-color="#7EB5FF"/>
<stop offset="0.9997" stop-color="#1A38F8"/>
</linearGradient>
</defs>
</svg>
