<svg width="60" height="60" viewBox="0 0 60 60" fill="none" xmlns="http://www.w3.org/2000/svg">
<g id="Icons">
<g clip-path="url(#clip0_360_8957)">
<g id="Group 48095716">
<circle id="Ellipse 175" cx="30" cy="30" r="30" fill="#F9F9F9"/>
<g id="Group 17640">
<path id="Vector" d="M18.3984 13.1679C18.4391 13.1197 18.4456 13.0599 18.4566 13.0012C18.5858 12.3156 18.9432 11.7842 19.555 11.4421C20.1865 11.0891 20.8394 11.0758 21.4947 11.3819C21.8095 11.5286 22.0982 11.7233 22.3968 11.8994C24.8132 13.323 27.2291 14.7478 29.6446 16.1737C31.0689 17.014 32.493 17.8544 33.9169 18.6951C34.0075 18.7488 34.0991 18.8006 34.1751 18.8767C34.432 19.1329 34.498 19.4329 34.3917 19.775C34.3646 19.8618 34.3205 19.9408 34.2755 20.0193C33.2305 21.833 32.1856 23.647 31.1406 25.461C31.0467 25.6242 30.9397 25.7718 30.7676 25.8641C30.3535 26.0863 29.8644 25.9579 29.6258 25.5539C29.4445 25.2469 29.2725 24.9346 29.0969 24.6245C28.9806 24.4193 28.8623 24.2151 28.7494 24.0077C28.5598 23.6584 28.5224 23.2946 28.6658 22.9199C28.7585 22.6787 28.9165 22.488 29.1238 22.3349C29.2328 22.2544 29.3413 22.1726 29.443 22.0833C29.741 21.8225 29.9034 21.4923 29.9274 21.0975C29.9319 21.0172 29.9252 20.9368 29.9075 20.8583C29.7984 20.3802 29.5817 19.9811 29.0818 19.8125C28.9351 19.7631 28.7796 19.7391 28.627 19.7081C27.5982 19.498 26.5692 19.2886 25.5401 19.08C25.2983 19.031 25.0581 18.9789 24.816 18.9343C24.0431 18.7919 23.4947 19.2717 23.3225 19.7923C22.8817 21.1246 22.4269 22.4536 21.9947 23.7891C21.8607 24.2024 21.8814 24.6227 22.1179 25.0088C22.4523 25.5545 23.1797 25.7528 23.7469 25.455C23.774 25.4418 23.7998 25.426 23.8238 25.4078C24.0677 25.2119 24.3563 25.1736 24.6505 25.1997C25.1255 25.2418 25.4784 25.4885 25.7142 25.8991C25.9791 26.3607 26.2338 26.8281 26.5032 27.2868C26.7441 27.697 26.6228 28.1654 26.3305 28.4431C26.167 28.5984 25.9742 28.6832 25.7459 28.6827C25.3732 28.6821 25.0007 28.6821 24.6285 28.6827C22.892 28.6827 21.1554 28.6827 19.4188 28.6827C19.2829 28.6827 19.1485 28.6743 19.0174 28.6297C18.734 28.5329 18.5544 28.3381 18.4628 28.0583C18.4477 28.0117 18.4488 27.9583 18.3992 27.929L18.3984 13.1679Z" fill="#00B37E"/>
<path id="Vector_2" d="M18.3984 32.116C18.4336 32.091 18.4454 32.0524 18.4554 32.0135C18.5403 31.679 18.8498 31.375 19.3368 31.3691C19.367 31.3691 19.3972 31.3691 19.4275 31.3691C21.4816 31.3691 23.5356 31.3691 25.5897 31.3691C25.706 31.3691 25.8212 31.3738 25.9336 31.4055C26.4747 31.5578 26.7128 32.1791 26.5047 32.6392C26.484 32.6844 26.4606 32.7296 26.4365 32.7732C26.1137 33.3574 25.7891 33.9408 25.4685 34.5261C25.3715 34.7031 25.2441 34.8458 25.0617 34.9362C24.7906 35.0707 24.521 35.0743 24.2527 34.9286C23.9843 34.7828 23.7155 34.6332 23.4438 34.4915C23.23 34.3802 23.0044 34.3568 22.772 34.4313C22.5877 34.489 22.4298 34.6099 22.3263 34.7726C22.1975 34.9703 22.0739 35.1715 21.9495 35.3719C21.8755 35.4913 21.8521 35.6243 21.8575 35.7618C21.8623 35.8922 21.8857 36.0213 21.9272 36.1451C22.4242 37.6282 22.92 39.1117 23.4145 40.5956C23.5316 40.9461 23.9434 41.3605 24.5419 41.2394C25.4334 41.0585 26.3249 40.8735 27.2151 40.6901C27.8256 40.5644 28.435 40.4339 29.0468 40.3156C29.3142 40.2641 29.5252 40.1361 29.6832 39.9212C29.8292 39.7228 29.9611 39.5144 30.0778 39.2975C30.3209 38.8454 30.1044 38.3581 29.7523 38.1197C29.6566 38.0549 29.5559 37.9972 29.4578 37.9367C29.265 37.8186 29.0713 37.7018 28.8792 37.5825C28.6693 37.452 28.5252 37.2713 28.4724 37.0268C28.4238 36.8008 28.4673 36.5885 28.5782 36.388C28.7775 36.028 28.9768 35.6679 29.1761 35.3079C29.3218 35.0444 29.4649 34.7794 29.6134 34.5175C29.7446 34.2858 29.9413 34.1407 30.2074 34.0982C30.5519 34.0432 30.8303 34.1575 31.0408 34.4338C31.0786 34.4868 31.113 34.5422 31.1437 34.5996C32.1923 36.4399 33.241 38.2802 34.2897 40.1205C34.3625 40.2483 34.4216 40.3807 34.4359 40.5273C34.4719 40.9002 34.3215 41.1818 34.0035 41.3738C33.7368 41.5347 33.4663 41.6903 33.1975 41.8467C29.4066 44.0653 25.6158 46.2833 21.825 48.5006C21.6159 48.6231 21.3997 48.7267 21.1647 48.7892C21.1277 48.7992 21.0839 48.8011 21.0567 48.8365H20.2105C20.1568 48.796 20.0896 48.794 20.0292 48.774C19.173 48.4917 18.6355 47.9226 18.456 47.0326C18.4455 46.9687 18.4261 46.9066 18.3984 46.8481V32.116Z" fill="#02405C"/>
<path id="Vector_3" d="M35.2435 28.2315C34.8861 28.2315 34.5286 28.2359 34.1707 28.2303C33.771 28.2242 33.4444 27.9693 33.3344 27.5893C33.2589 27.3289 33.2962 27.0841 33.4307 26.8509C33.646 26.4767 33.8586 26.1009 34.0724 25.7256L36.5255 21.4203C36.5676 21.3461 36.6081 21.2709 36.6535 21.1986C36.889 20.8219 37.3417 20.6862 37.7482 20.871C37.9501 20.9628 38.1349 21.0853 38.3254 21.1972C40.6185 22.5444 42.911 23.8923 45.203 25.2407C46.8193 26.191 48.4361 27.141 50.0534 28.0908C50.6069 28.4152 50.9682 28.8792 51.1222 29.5028C51.1455 29.5968 51.1495 29.6913 51.1507 29.7864C51.1527 29.9371 51.1456 30.0878 51.1526 30.2385C51.1677 30.5711 51.0643 30.8714 50.9088 31.1577C50.7166 31.5114 50.438 31.7801 50.0916 31.9825C48.8719 32.6953 47.6525 33.4086 46.4334 34.1224L41.8247 36.8178C40.5186 37.5814 39.2124 38.3452 37.9061 39.1093C37.7385 39.2074 37.5643 39.2731 37.3641 39.2671C37.0628 39.2581 36.8337 39.125 36.669 38.8803C36.5882 38.7597 36.5218 38.6292 36.451 38.502C35.4738 36.7532 34.4967 35.0046 33.5195 33.256C33.3882 33.0217 33.3341 32.7774 33.3958 32.5176C33.4948 32.1002 33.8375 31.8336 34.2722 31.8261C34.4786 31.8225 34.685 31.8261 34.8917 31.8261C35.3497 31.8261 35.8077 31.8261 36.2659 31.8261C36.4662 31.8261 36.6545 31.8713 36.8233 31.9843C37.0218 32.118 37.1377 32.3066 37.185 32.5366C37.2038 32.6302 37.2126 32.7255 37.2113 32.821C37.2092 33.1073 37.2162 33.3936 37.2095 33.6799C37.1998 34.1067 37.5249 34.4976 37.973 34.5757C38.0176 34.5831 38.0628 34.5869 38.108 34.587C38.2993 34.5882 38.4906 34.587 38.6822 34.587C38.824 34.5874 38.9627 34.5459 39.0808 34.4678C39.1907 34.3967 39.2902 34.3108 39.3767 34.2126C40.2162 33.2582 41.0561 32.3038 41.8963 31.3494C42.1188 31.0967 42.3368 30.8399 42.5653 30.5925C42.8634 30.2695 42.8386 29.7798 42.5635 29.4696C41.4962 28.2666 40.4374 27.0561 39.3751 25.8487C39.3058 25.7698 39.2452 25.683 39.1545 25.6236C39.0337 25.5445 38.907 25.4868 38.7617 25.4851C38.5101 25.4824 38.2577 25.4728 38.007 25.4883C37.562 25.5157 37.2231 25.8757 37.213 26.3227C37.2059 26.6438 37.2116 26.9652 37.2104 27.2871C37.2095 27.5433 37.132 27.7694 36.9473 27.9549C36.7627 28.1404 36.545 28.2344 36.2855 28.2355C35.938 28.2367 35.5904 28.2355 35.2429 28.2355L35.2435 28.2315Z" fill="#00B37E"/>
</g>
</g>
</g>
</g>
<defs>
<clipPath id="clip0_360_8957">
<rect width="60" height="60" rx="30" fill="white"/>
</clipPath>
</defs>
</svg>
