<svg width="50" height="50" viewBox="0 0 50 50" fill="none" xmlns="http://www.w3.org/2000/svg">
<circle cx="25" cy="25" r="24.5" fill="white" stroke="#4B564B"/>
<path d="M35 37.3311V26.655C35 26.2738 34.714 25.9878 34.3327 25.9878H29.5667C29.0901 25.9878 28.7564 26.5597 28.9947 26.9887L29.6143 28.0849C29.9003 28.5615 30.4722 28.7045 30.9488 28.4662L30.9965 28.4185C31.4731 28.1325 32.045 28.3232 32.2833 28.7521C32.4263 28.9904 32.4263 29.2764 32.3787 29.5624L31.3778 32.565C31.3109 32.7927 31.1615 32.9873 30.9588 33.1107C30.756 33.2341 30.5146 33.2775 30.2816 33.2322L27.2313 32.6127C26.9453 32.565 26.707 32.3743 26.6117 32.136C26.3257 31.6594 26.5164 31.0875 26.9453 30.8015L26.993 30.7539C27.4696 30.4679 27.6126 29.896 27.3266 29.4194L26.707 28.3232C26.4687 27.8942 25.8491 27.8942 25.6108 28.3232L23.2278 32.4697C23.0371 32.8033 23.1324 33.1846 23.4661 33.3752L32.5693 38.7609C33.6655 39.4282 35 38.6179 35 37.3311ZM11.5509 26.4167L20.6064 31.7548C20.94 31.9454 21.3213 31.8501 21.512 31.5165L23.895 27.3223C24.1333 26.8933 23.8474 26.3214 23.3231 26.3214H21.7503C21.4167 26.3214 21.083 26.6074 21.083 26.9887V27.7036C21.083 28.0849 20.7971 28.3708 20.4158 28.3708H19.9868C19.7962 28.3708 19.6055 28.2755 19.5102 28.1325L17.1272 25.4159C16.8889 25.1776 16.8889 24.7963 17.1272 24.558L19.5102 21.8413C19.6532 21.6983 19.7962 21.603 19.9868 21.603H20.4158C20.7494 21.603 21.083 21.889 21.083 22.2702V22.9852C21.083 23.3664 21.369 23.6524 21.7503 23.6524H23.2754C23.752 23.6524 24.0857 23.1281 23.8474 22.6515L21.512 18.4574C21.3213 18.1238 20.94 18.0284 20.6064 18.2191L11.5032 23.5571C10.4547 24.1767 10.4547 25.7971 11.5509 26.4167Z" fill="#697DF3"/>
<path d="M32.5693 11.2132L23.4661 16.5512C23.1324 16.7419 23.0371 17.1232 23.2278 17.4568L25.6108 21.6509C25.8491 22.0799 26.4687 22.0799 26.707 21.6509L27.4696 20.2688C27.6602 19.9352 27.5649 19.5539 27.2313 19.3632L26.6117 18.9819C26.3257 18.7913 26.1827 18.41 26.3734 18.0764L26.6117 17.6951C26.707 17.5521 26.85 17.4091 27.0406 17.3615L30.5199 16.6466C30.8535 16.5989 31.1395 16.7895 31.2825 17.0755L32.4263 20.5071C32.474 20.6977 32.474 20.8884 32.3787 21.0314L32.1403 21.4126C31.9497 21.7463 31.5684 21.8416 31.2348 21.6509L30.7105 21.365C30.4246 21.1743 29.9956 21.2697 29.805 21.6033L29.0424 22.9855C28.8041 23.4144 29.0901 23.9863 29.6143 23.9863H34.3327C34.714 23.9863 35 23.7004 35 23.3191V12.643C35 11.4039 33.6655 10.5936 32.5693 11.2132Z" fill="#2F4A68"/>
</svg>
