<svg width="60" height="60" viewBox="0 0 60 60" fill="none" xmlns="http://www.w3.org/2000/svg">
<circle cx="30" cy="30" r="30" fill="#F9F9F9"/>
<g clip-path="url(#clip0_1752_12680)">
<path d="M29.9989 7.5L29.6973 8.52518L29.6973 38.2735L29.9989 38.5746L43.8077 30.4122L29.9989 7.5Z" fill="#343434"/>
<path d="M29.9954 7.5L16.1865 30.4122L29.9954 38.5747V24.1358V7.5Z" fill="#8C8C8C"/>
<path d="M29.9942 41.1895L29.8242 41.3967V51.9937L29.9942 52.4902L43.8112 33.0312L29.9942 41.1895Z" fill="#3C3C3B"/>
<path d="M29.9954 52.4902V41.1895L16.1865 33.0312L29.9954 52.4902Z" fill="#8C8C8C"/>
<path d="M29.9954 38.5745L43.804 30.4122L29.9954 24.1357V38.5745Z" fill="#141414"/>
<path d="M16.1865 30.4122L29.9952 38.5745V24.1357L16.1865 30.4122Z" fill="#393939"/>
</g>
<defs>
<clipPath id="clip0_1752_12680">
<rect width="27.6259" height="45" fill="white" transform="translate(16.1865 7.5)"/>
</clipPath>
</defs>
</svg>
