<svg width="60" height="60" viewBox="0 0 60 60" fill="none" xmlns="http://www.w3.org/2000/svg">
<g clip-path="url(#clip0_360_8966)">
<circle cx="30" cy="30" r="30" fill="#8247E5"/>
<path d="M38.439 24.5252C37.8395 24.1786 37.0688 24.1786 36.3837 24.5252L31.5878 27.3846L28.3335 29.2041L23.6234 32.0635C23.0239 32.4101 22.2531 32.4101 21.568 32.0635L17.8855 29.8107C17.286 29.4641 16.8578 28.7709 16.8578 27.9911V23.6587C16.8578 22.9656 17.2004 22.2724 17.8855 21.8392L21.568 19.673C22.1675 19.3264 22.9382 19.3264 23.6234 19.673L27.3059 21.9258C27.9053 22.2724 28.3335 22.9656 28.3335 23.7454V26.6047L31.5878 24.6985V21.7525C31.5878 21.0593 31.2453 20.3662 30.5602 19.9329L23.709 15.8605C23.1095 15.5139 22.3388 15.5139 21.6536 15.8605L14.6312 20.0196C13.9461 20.3662 13.6035 21.0593 13.6035 21.7525V29.8973C13.6035 30.5905 13.9461 31.2837 14.6312 31.7169L21.568 35.7893C22.1675 36.1359 22.9382 36.1359 23.6234 35.7893L28.3335 33.0166L31.5878 31.1104L36.298 28.3377C36.8975 27.9911 37.6683 27.9911 38.3534 28.3377L42.0359 30.5039C42.6354 30.8504 43.0636 31.5436 43.0636 32.3234V36.6558C43.0636 37.349 42.721 38.0421 42.0359 38.4754L38.439 40.6415C37.8395 40.9881 37.0688 40.9881 36.3837 40.6415L32.7012 38.4754C32.1017 38.1288 31.6735 37.4356 31.6735 36.6558V33.8831L28.4192 35.7893V38.6487C28.4192 39.3418 28.7617 40.035 29.4469 40.4682L36.3837 44.5406C36.9832 44.8872 37.7539 44.8872 38.439 44.5406L45.3758 40.4682C45.9753 40.1217 46.4035 39.4285 46.4035 38.6487V30.4172C46.4035 29.724 46.061 29.0309 45.3758 28.5976L38.439 24.5252Z" fill="white"/>
</g>
<defs>
<clipPath id="clip0_360_8966">
<rect width="60" height="60" rx="30" fill="white"/>
</clipPath>
</defs>
</svg>
