<svg width="50" height="50" viewBox="0 0 50 50" fill="none" xmlns="http://www.w3.org/2000/svg">
<circle cx="25" cy="25" r="24.5" fill="white" stroke="#4B564B"/>
<path d="M22.886 25.0225C22.9805 25.5289 23.1326 26.7418 22.5515 28.1047C22.088 29.1918 21.372 29.8719 20.9704 30.2024C21.0032 30.6797 20.9844 31.3171 20.7786 32.0294C20.2788 33.7614 19.0146 34.7598 18.5066 35.1189C18.071 34.7322 17.1711 33.8278 16.7152 32.3751C16.3385 31.1751 16.4361 30.1479 16.5303 29.5985C16.4269 29.4006 15.4056 27.3691 16.5064 25.5526C16.9451 24.829 17.5564 24.4101 17.9534 24.1895C17.8671 23.8797 17.1165 21.0118 18.9506 19.0556C19.2323 18.7553 20.0265 17.9082 21.3755 17.7144C22.9462 17.4892 24.1283 18.3139 24.3772 18.4959C24.1108 18.8367 23.3775 19.8666 23.3684 21.3509C23.3607 22.574 23.8492 23.4698 24.0874 23.8499C24.0105 24.0009 23.901 24.1795 23.7445 24.3615C23.4456 24.7091 23.1118 24.9109 22.886 25.0225Z" fill="#6DA316"/>
<path d="M32.1246 27.8715C32.1005 29.3218 31.4685 30.3593 31.1815 30.7748C31.4736 31.635 31.5221 32.3754 31.4843 32.957C31.2031 37.2758 25.7188 39.6253 25.3297 39.7861C24.7773 39.0039 24.0585 37.7795 23.6409 36.1533C23.0204 33.7366 23.391 31.7046 23.6656 30.6546C23.4357 30.2222 23.2259 29.6946 23.1151 29.0787C22.6628 26.5631 24.217 24.5265 24.646 23.9993C24.4016 23.6507 23.6318 22.4578 23.835 20.8827C23.8527 20.7464 24.221 18.2143 26.3505 17.493C28.211 16.8624 30.2318 18.015 31.1762 19.4578C32.163 20.9652 32.0878 22.9628 30.9882 24.5313C31.2826 24.9088 32.1538 26.1251 32.1246 27.8715Z" fill="#6DA316"/>
<path d="M25.3333 15.9337C25.5576 16.3871 25.5848 16.8298 25.5723 17.1329C25.5014 17.0853 25.3902 17.0152 25.2462 16.9458C24.5739 16.6224 23.9602 16.6856 23.6691 16.6803C22.5541 16.6605 21.4159 15.5514 20.9615 14.5181C20.6037 13.7036 20.6661 12.9266 20.7568 12.4551C20.819 12.5618 20.9181 12.7182 21.0606 12.8914C21.628 13.5817 22.2343 13.7505 23.0979 14.1907C24.1182 14.7108 24.9335 15.1264 25.3333 15.9337Z" fill="#588D00"/>
<path d="M27.8561 14.9744C27.6422 15.526 27.2287 16.3292 26.3461 17.1874C25.0007 14.609 25.1838 11.8084 26.7764 10.1612C27.5879 9.3221 28.598 8.95493 29.3305 8.78613C29.2107 9.01918 29.0232 9.40613 28.8421 9.90081C28.0326 12.1094 28.503 13.3059 27.8561 14.9744Z" fill="#588D00"/>
<path d="M33.3159 17.2208C32.3759 17.9708 30.9408 17.6901 29.5537 17.4187C28.7513 17.2619 28.1034 17.0296 27.647 16.8375C27.8123 16.5793 28.0816 16.2493 28.508 16.0314C28.9505 15.8054 29.2019 15.8838 30.5641 15.7146C31.2994 15.6232 31.6626 15.5499 31.9354 15.4036C32.5709 15.0628 32.7314 14.5991 33.4947 14.3094C33.7451 14.2141 33.9659 14.1736 34.1137 14.1543C34.1553 14.3842 34.4749 16.296 33.3159 17.2208Z" fill="#588D00"/>
</svg>
