<svg width="268" height="197" viewBox="0 0 268 197" fill="currentColor" xmlns="http://www.w3.org/2000/svg">
<path d="M254.5 0L257.078 9.0343L266.191 6.75L259.657 13.5L266.191 20.25L257.078 17.9657L254.5 27L251.922 17.9657L242.809 20.25L249.343 13.5L242.809 6.75L251.922 9.0343L254.5 0Z" fill="#8E80A7"/>
<path d="M171 16L173.072 23.8889C173.644 26.07 175.111 27.908 177.111 28.9506L182 31.5L177.111 34.0494C175.111 35.092 173.644 36.93 173.072 39.1111L171 47L168.928 39.1111C168.356 36.93 166.889 35.092 164.889 34.0494L160 31.5L164.889 28.9506C166.889 27.908 168.356 26.07 168.928 23.8889L171 16Z" fill="#8E80A7"/>
<path d="M28.5 149L33.655 162.647C34.5831 165.104 36.5382 167.033 39.0073 167.928L53 173L39.0073 178.072C36.5382 178.967 34.5831 180.896 33.655 183.353L28.5 197L23.345 183.353C22.4169 180.896 20.4618 178.967 17.9927 178.072L4 173L17.9927 167.928C20.4618 167.033 22.4169 165.104 23.345 162.647L28.5 149Z" fill="#8E80A7"/>
<path d="M11 143L12.2218 145.552C13.3342 147.874 15.3885 149.61 17.8649 150.318L22 151.5L17.8649 152.682C15.3885 153.39 13.3342 155.126 12.2218 157.448L11 160L9.77816 157.448C8.66577 155.126 6.61146 153.39 4.13513 152.682L0 151.5L4.13512 150.318C6.61146 149.61 8.66577 147.874 9.77817 145.552L11 143Z" fill="#8E80A7"/>
</svg>
