<svg width="295" height="236" viewBox="0 0 295 236" fill="currentColor" xmlns="http://www.w3.org/2000/svg">
<path d="M13.5 0L16.0783 9.0343L25.1913 6.75L18.6565 13.5L25.1913 20.25L16.0783 17.9657L13.5 27L10.9217 17.9657L1.80866 20.25L8.34346 13.5L1.80866 6.75L10.9217 9.0343L13.5 0Z" fill="#8E80A7"/>
<path d="M193.499 104.221L196.454 108.091C197.871 109.947 200.028 111.091 202.359 111.223L207.22 111.5L203.35 114.454C201.494 115.871 200.35 118.028 200.218 120.359L199.942 125.22L196.987 121.35C195.57 119.494 193.413 118.35 191.082 118.218L186.221 117.942L190.091 114.987C191.947 113.57 193.091 111.413 193.223 109.082L193.499 104.221Z" fill="#8E80A7"/>
<path d="M269 184L272.346 206.654L295 210L272.346 213.346L269 236L265.654 213.346L243 210L265.654 206.654L269 184Z" fill="#8E80A7"/>
<path d="M252.5 188L253.208 192.792L258 193.5L253.208 194.208L252.5 199L251.792 194.208L247 193.5L251.792 192.792L252.5 188Z" fill="#8E80A7"/>
<path d="M287.5 220L288.337 225.663L294 226.5L288.337 227.337L287.5 233L286.663 227.337L281 226.5L286.663 225.663L287.5 220Z" fill="#8E80A7"/>
</svg>
