<?xml version="1.0" encoding="utf-8"?>
<!-- Generator: Adobe Illustrator 26.1.0, SVG Export Plug-In . SVG Version: 6.00 Build 0)  -->
<svg version="1.1" id="Layer_1" xmlns="http://www.w3.org/2000/svg" xmlns:xlink="http://www.w3.org/1999/xlink" x="0px" y="0px"
	 viewBox="0 0 55 64" style="enable-background:new 0 0 55 64;" xml:space="preserve">
<style type="text/css">
	.st0{fill:#FFFFFF;filter:url(#Adobe_OpacityMaskFilter);}
	.st1{fill:#FFFFFF;}
	.st2{mask:url(#mask0_291_36_00000156562524117432685210000005427565558921436587_);}
	.st3{fill:none;}
</style>
<defs>
	<filter id="Adobe_OpacityMaskFilter" filterUnits="userSpaceOnUse" x="-11.6" y="-7.1" width="78.4" height="78.4">
		<feColorMatrix  type="matrix" values="1 0 0 0 0  0 1 0 0 0  0 0 1 0 0  0 0 0 1 0"/>
	</filter>
</defs>
<mask maskUnits="userSpaceOnUse" x="-11.6" y="-7.1" width="78.4" height="78.4" id="mask0_291_36_00000156562524117432685210000005427565558921436587_">
	<path class="st0" d="M0.7,4.6v23.7c0,0.8,0.6,1.5,1.4,1.5h0l10.6,0c1.1,0,1.8-1.2,1.2-2.2l-1.4-2.4c-0.6-1-1.9-1.4-2.9-0.8
		c0,0,0,0,0,0l-0.1,0.1c-1,0.6-2.3,0.3-2.9-0.8c0,0,0,0,0,0c-0.3-0.5-0.4-1.2-0.2-1.8l2.2-6.7c0.3-1,1.4-1.7,2.5-1.5l6.8,1.4
		c0.6,0.1,1.1,0.5,1.4,1c0.6,1,0.2,2.3-0.8,3l-0.1,0.1c-1,0.6-1.4,1.9-0.8,3l1.4,2.4c0.4,0.7,1.2,0.9,1.9,0.6
		c0.2-0.1,0.4-0.3,0.5-0.5l5.3-9.2c0.4-0.7,0.2-1.6-0.5-2L6.1,1.5C3.7,0.1,0.7,1.8,0.7,4.6z"/>
	<path class="st1" d="M52.8,28.9L32.6,17.1c-0.7-0.4-1.5-0.2-1.9,0.5c0,0,0,0,0,0L25.4,27c-0.5,1,0.1,2.2,1.2,2.2h3.5
		c0.8,0,1.4-0.7,1.4-1.5v-1.6c0-0.8,0.6-1.5,1.4-1.5h1c0.4,0,0.8,0.2,1.1,0.5l5.2,6c0.5,0.6,0.5,1.4,0,1.9l-5.2,6
		c-0.3,0.3-0.7,0.5-1.1,0.5h-1c-0.8,0-1.4-0.7-1.4-1.5v-1.6c0-0.8-0.6-1.5-1.4-1.5h-3.4c-1.1,0-1.8,1.2-1.2,2.2l5.2,9.3
		c0.4,0.7,1.2,0.9,1.9,0.6c0,0,0,0,0,0l20.2-11.9C55.2,33.9,55.2,30.3,52.8,28.9z"/>
	<path class="st1" d="M6.1,62.7l20.2-11.9c0.7-0.4,0.9-1.3,0.5-2l-5.3-9.3c-0.4-0.7-1.3-0.9-1.9-0.5c-0.2,0.1-0.4,0.3-0.5,0.5
		l-1.7,3.1c-0.4,0.7-0.2,1.6,0.5,2l1.4,0.8c0.7,0.4,0.9,1.3,0.5,2l-0.5,0.9c-0.2,0.4-0.6,0.6-1,0.7l-7.7,1.6c-0.7,0.1-1.4-0.3-1.7-1
		l-2.5-7.6c-0.1-0.4-0.1-0.8,0.1-1.2l0.5-0.9c0.4-0.7,1.2-0.9,1.9-0.6c0,0,0,0,0,0l1.4,0.8c0.7,0.4,1.5,0.2,1.9-0.5c0,0,0,0,0,0
		l1.7-3c0.6-1-0.1-2.2-1.2-2.2l-10.5,0c-0.8,0-1.4,0.7-1.4,1.5v0v23.7C0.7,62.3,3.7,64.1,6.1,62.7z"/>
</mask>
<g class="st2">
	<g>
		<rect x="-11.6" y="-7.1" class="st3" width="78.4" height="78.4"/>
	</g>
</g>
<image style="overflow:visible;enable-background:new    ;" width="864" height="807" xlink:href="LOGOMARK.png"  transform="matrix(9.524381e-02 0 0 9.524381e-02 -13.9368 -6.322)">
</image>
</svg>
