<svg width="24" height="24" viewBox="0 0 24 24" fill="none" xmlns="http://www.w3.org/2000/svg">
<g id="Icon=Korea, Type=Flag">
<g id="Group">
<path id="Vector" d="M12 24C18.6274 24 24 18.6274 24 12C24 5.37258 18.6274 0 12 0C5.37258 0 0 5.37258 0 12C0 18.6274 5.37258 24 12 24Z" fill="#F0F0F0"/>
<path id="Vector_2" d="M16.174 12.0001C16.174 13.0435 14.3052 15.6522 12.0001 15.6522C9.69489 15.6522 7.82617 13.0435 7.82617 12.0001C7.82617 9.69484 9.69489 7.82617 12.0001 7.82617C14.3052 7.82617 16.174 9.69484 16.174 12.0001Z" fill="#D80027"/>
<path id="Vector_3" d="M16.174 12C16.174 14.3052 14.3052 16.1739 12.0001 16.1739C9.69489 16.1739 7.82617 14.3052 7.82617 12" fill="#0052B4"/>
<path id="Vector_4" d="M16.4239 15.6894L17.5305 14.5828L18.2682 15.3205L17.1616 16.4271L16.4239 15.6894ZM14.579 17.5338L15.6856 16.4272L16.4233 17.1649L15.3168 18.2716L14.579 17.5338ZM18.6372 17.9025L19.7439 16.7959L20.4816 17.5337L19.375 18.6402L18.6372 17.9025ZM16.7924 19.7472L17.899 18.6406L18.6368 19.3783L17.5302 20.485L16.7924 19.7472ZM17.5305 16.796L18.6371 15.6895L19.3749 16.4272L18.2682 17.5338L17.5305 16.796ZM15.6861 18.6404L16.7928 17.5338L17.5305 18.2716L16.4239 19.3781L15.6861 18.6404ZM18.6422 8.31255L15.6912 5.36163L16.429 4.62386L19.3799 7.57483L18.6422 8.31255ZM15.6906 7.57511L14.5841 6.46853L15.3218 5.73081L16.4283 6.83739L15.6906 7.57511ZM17.535 9.41992L16.4284 8.3133L17.1661 7.57563L18.2727 8.6822L17.535 9.41992ZM17.9036 5.36153L16.797 4.25491L17.5348 3.51719L18.6413 4.62372L17.9036 5.36153ZM19.749 7.20653L18.6424 6.09995L19.3801 5.36219L20.4867 6.46881L19.749 7.20653ZM4.25416 16.794L7.20513 19.7449L6.46736 20.4827L3.51644 17.5317L4.25416 16.794ZM7.20499 17.5311L8.31157 18.6377L7.57385 19.3754L6.46727 18.2688L7.20499 17.5311ZM5.36046 15.6872L6.46708 16.7937L5.72932 17.5315L4.62274 16.4249L5.36046 15.6872ZM6.46722 14.5802L9.41814 17.5312L8.68038 18.2689L5.72946 15.318L6.46722 14.5802ZM7.2048 4.25266L4.25388 7.20358L3.51611 6.46581L6.46708 3.51489L7.2048 4.25266ZM8.31143 5.3591L5.36046 8.31006L4.62274 7.5723L7.57366 4.62138L8.31143 5.3591ZM9.41908 6.46638L6.46811 9.41735L5.73039 8.67963L8.68136 5.72866L9.41908 6.46638Z" fill="black"/>
</g>
</g>
</svg>
